<svg width="1479" height="379" viewBox="0 0 1479 379" fill="none" xmlns="http://www.w3.org/2000/svg">
<mask id="path-1-inside-1" fill="white">
<path d="M1034.5 74L1035.58 85.6294L1046.19 80.75L1036.66 87.5L1046.19 94.25L1035.58 89.3706L1034.5 101L1033.42 89.3706L1022.81 94.25L1032.34 87.5L1022.81 80.75L1033.42 85.6294L1034.5 74Z"/>
</mask>
<path d="M1034.5 74L1085.28 69.284H983.719L1034.5 74ZM1035.58 85.6294L984.799 90.3454L991.458 162.051L1056.89 131.965L1035.58 85.6294ZM1046.19 80.75L1075.67 122.37L1024.88 34.4139L1046.19 80.75ZM1036.66 87.5L1007.19 45.8799L948.415 87.5L1007.19 129.12L1036.66 87.5ZM1046.19 94.25L1024.88 140.586L1075.67 52.6299L1046.19 94.25ZM1035.58 89.3706L1056.89 43.0346L991.458 12.9486L984.799 84.6546L1035.58 89.3706ZM1034.5 101L983.719 105.716H1085.28L1034.5 101ZM1033.42 89.3706L1084.2 84.6546L1077.54 12.9486L1012.11 43.0346L1033.42 89.3706ZM1022.81 94.25L993.334 52.6299L1044.12 140.586L1022.81 94.25ZM1032.34 87.5L1061.81 129.12L1120.58 87.5L1061.81 45.8799L1032.34 87.5ZM1022.81 80.75L1044.12 34.4139L993.334 122.37L1022.81 80.75ZM1033.42 85.6294L1012.11 131.965L1077.54 162.051L1084.2 90.3454L1033.42 85.6294ZM983.719 78.716L984.799 90.3454L1086.36 80.9134L1085.28 69.284L983.719 78.716ZM1056.89 131.965L1067.5 127.086L1024.88 34.4139L1014.27 39.2933L1056.89 131.965ZM1016.72 39.1299L1007.19 45.8799L1066.13 129.12L1075.67 122.37L1016.72 39.1299ZM1007.19 129.12L1016.72 135.87L1075.67 52.6299L1066.13 45.8799L1007.19 129.12ZM1067.5 47.9139L1056.89 43.0346L1014.27 135.707L1024.88 140.586L1067.5 47.9139ZM984.799 84.6546L983.719 96.284L1085.28 105.716L1086.36 94.0866L984.799 84.6546ZM1085.28 96.284L1084.2 84.6546L982.639 94.0866L983.719 105.716L1085.28 96.284ZM1012.11 43.0346L1001.5 47.9139L1044.12 140.586L1054.73 135.707L1012.11 43.0346ZM1052.28 135.87L1061.81 129.12L1002.87 45.8799L993.334 52.6299L1052.28 135.87ZM1061.81 45.8799L1052.28 39.1299L993.334 122.37L1002.87 129.12L1061.81 45.8799ZM1001.5 127.086L1012.11 131.965L1054.73 39.2933L1044.12 34.4139L1001.5 127.086ZM1084.2 90.3454L1085.28 78.716L983.719 69.284L982.639 80.9134L1084.2 90.3454Z" fill="#FCFCFC" mask="url(#path-1-inside-1)"/>
<mask id="path-3-inside-2" fill="white">
<path d="M998.5 352L999.58 363.629L1010.19 358.75L1000.66 365.5L1010.19 372.25L999.58 367.371L998.5 379L997.42 367.371L986.809 372.25L996.34 365.5L986.809 358.75L997.42 363.629L998.5 352Z"/>
</mask>
<path d="M998.5 352L1049.28 347.284H947.719L998.5 352ZM999.58 363.629L948.799 368.345L955.458 440.051L1020.89 409.965L999.58 363.629ZM1010.19 358.75L1039.67 400.37L988.885 312.414L1010.19 358.75ZM1000.66 365.5L971.185 323.88L912.415 365.5L971.185 407.12L1000.66 365.5ZM1010.19 372.25L988.885 418.586L1039.67 330.63L1010.19 372.25ZM999.58 367.371L1020.89 321.035L955.458 290.949L948.799 362.655L999.58 367.371ZM998.5 379L947.719 383.716H1049.28L998.5 379ZM997.42 367.371L1048.2 362.655L1041.54 290.949L976.113 321.035L997.42 367.371ZM986.809 372.25L957.334 330.63L1008.12 418.586L986.809 372.25ZM996.34 365.5L1025.81 407.12L1084.58 365.5L1025.81 323.88L996.34 365.5ZM986.809 358.75L1008.12 312.414L957.334 400.37L986.809 358.75ZM997.42 363.629L976.113 409.965L1041.54 440.051L1048.2 368.345L997.42 363.629ZM947.719 356.716L948.799 368.345L1050.36 358.913L1049.28 347.284L947.719 356.716ZM1020.89 409.965L1031.5 405.086L988.885 312.414L978.273 317.293L1020.89 409.965ZM980.716 317.13L971.185 323.88L1030.13 407.12L1039.67 400.37L980.716 317.13ZM971.185 407.12L980.716 413.87L1039.67 330.63L1030.13 323.88L971.185 407.12ZM1031.5 325.914L1020.89 321.035L978.273 413.707L988.885 418.586L1031.5 325.914ZM948.799 362.655L947.719 374.284L1049.28 383.716L1050.36 372.087L948.799 362.655ZM1049.28 374.284L1048.2 362.655L946.639 372.087L947.719 383.716L1049.28 374.284ZM976.113 321.035L965.502 325.914L1008.12 418.586L1018.73 413.707L976.113 321.035ZM1016.28 413.87L1025.81 407.12L966.865 323.88L957.334 330.63L1016.28 413.87ZM1025.81 323.88L1016.28 317.13L957.334 400.37L966.865 407.12L1025.81 323.88ZM965.502 405.086L976.113 409.965L1018.73 317.293L1008.12 312.414L965.502 405.086ZM1048.2 368.345L1049.28 356.716L947.719 347.284L946.639 358.913L1048.2 368.345Z" fill="#FCFCFC" mask="url(#path-3-inside-2)"/>
<mask id="path-5-inside-3" fill="white">
<path d="M475.5 2L476.58 13.6294L487.191 8.75L477.66 15.5L487.191 22.25L476.58 17.3706L475.5 29L474.42 17.3706L463.809 22.25L473.34 15.5L463.809 8.75L474.42 13.6294L475.5 2Z"/>
</mask>
<path d="M475.5 2L526.281 -2.71598H424.719L475.5 2ZM476.58 13.6294L425.799 18.3454L432.458 90.0514L497.887 59.9654L476.58 13.6294ZM487.191 8.75L516.666 50.3701L465.885 -37.5861L487.191 8.75ZM477.66 15.5L448.185 -26.1201L389.415 15.5L448.185 57.1201L477.66 15.5ZM487.191 22.25L465.885 68.5861L516.666 -19.3701L487.191 22.25ZM476.58 17.3706L497.887 -28.9654L432.458 -59.0514L425.799 12.6546L476.58 17.3706ZM475.5 29L424.719 33.716H526.281L475.5 29ZM474.42 17.3706L525.201 12.6546L518.542 -59.0514L453.113 -28.9654L474.42 17.3706ZM463.809 22.25L434.334 -19.3701L485.115 68.5861L463.809 22.25ZM473.34 15.5L502.815 57.1201L561.585 15.5L502.815 -26.1201L473.34 15.5ZM463.809 8.75L485.115 -37.5861L434.334 50.3701L463.809 8.75ZM474.42 13.6294L453.113 59.9654L518.542 90.0514L525.201 18.3454L474.42 13.6294ZM424.719 6.71598L425.799 18.3454L527.361 8.9134L526.281 -2.71598L424.719 6.71598ZM497.887 59.9654L508.498 55.0861L465.885 -37.5861L455.273 -32.7067L497.887 59.9654ZM457.716 -32.8701L448.185 -26.1201L507.135 57.1201L516.666 50.3701L457.716 -32.8701ZM448.185 57.1201L457.716 63.8701L516.666 -19.3701L507.135 -26.1201L448.185 57.1201ZM508.498 -24.0861L497.887 -28.9654L455.273 63.7067L465.885 68.5861L508.498 -24.0861ZM425.799 12.6546L424.719 24.284L526.281 33.716L527.361 22.0866L425.799 12.6546ZM526.281 24.284L525.201 12.6546L423.639 22.0866L424.719 33.716L526.281 24.284ZM453.113 -28.9654L442.502 -24.0861L485.115 68.5861L495.727 63.7067L453.113 -28.9654ZM493.284 63.8701L502.815 57.1201L443.865 -26.1201L434.334 -19.3701L493.284 63.8701ZM502.815 -26.1201L493.284 -32.8701L434.334 50.3701L443.865 57.1201L502.815 -26.1201ZM442.502 55.0861L453.113 59.9654L495.727 -32.7067L485.115 -37.5861L442.502 55.0861ZM525.201 18.3454L526.281 6.71598L424.719 -2.71598L423.639 8.9134L525.201 18.3454Z" fill="#FCFCFC" mask="url(#path-5-inside-3)"/>
<mask id="path-7-inside-4" fill="white">
<path d="M272.5 311L273.58 322.629L284.191 317.75L274.66 324.5L284.191 331.25L273.58 326.371L272.5 338L271.42 326.371L260.809 331.25L270.34 324.5L260.809 317.75L271.42 322.629L272.5 311Z"/>
</mask>
<path d="M272.5 311L323.281 306.284H221.719L272.5 311ZM273.58 322.629L222.799 327.345L229.458 399.051L294.887 368.965L273.58 322.629ZM284.191 317.75L313.666 359.37L262.885 271.414L284.191 317.75ZM274.66 324.5L245.185 282.88L186.415 324.5L245.185 366.12L274.66 324.5ZM284.191 331.25L262.885 377.586L313.666 289.63L284.191 331.25ZM273.58 326.371L294.887 280.035L229.458 249.949L222.799 321.655L273.58 326.371ZM272.5 338L221.719 342.716H323.281L272.5 338ZM271.42 326.371L322.201 321.655L315.542 249.949L250.113 280.035L271.42 326.371ZM260.809 331.25L231.334 289.63L282.115 377.586L260.809 331.25ZM270.34 324.5L299.815 366.12L358.585 324.5L299.815 282.88L270.34 324.5ZM260.809 317.75L282.115 271.414L231.334 359.37L260.809 317.75ZM271.42 322.629L250.113 368.965L315.542 399.051L322.201 327.345L271.42 322.629ZM221.719 315.716L222.799 327.345L324.361 317.913L323.281 306.284L221.719 315.716ZM294.887 368.965L305.498 364.086L262.885 271.414L252.273 276.293L294.887 368.965ZM254.716 276.13L245.185 282.88L304.135 366.12L313.666 359.37L254.716 276.13ZM245.185 366.12L254.716 372.87L313.666 289.63L304.135 282.88L245.185 366.12ZM305.498 284.914L294.887 280.035L252.273 372.707L262.885 377.586L305.498 284.914ZM222.799 321.655L221.719 333.284L323.281 342.716L324.361 331.087L222.799 321.655ZM323.281 333.284L322.201 321.655L220.639 331.087L221.719 342.716L323.281 333.284ZM250.113 280.035L239.502 284.914L282.115 377.586L292.727 372.707L250.113 280.035ZM290.284 372.87L299.815 366.12L240.865 282.88L231.334 289.63L290.284 372.87ZM299.815 282.88L290.284 276.13L231.334 359.37L240.865 366.12L299.815 282.88ZM239.502 364.086L250.113 368.965L292.727 276.293L282.115 271.414L239.502 364.086ZM322.201 327.345L323.281 315.716L221.719 306.284L220.639 317.913L322.201 327.345Z" fill="#FCFCFC" mask="url(#path-7-inside-4)"/>
<mask id="path-9-inside-5" fill="white">
<path d="M622.5 284L623.58 295.629L634.191 290.75L624.66 297.5L634.191 304.25L623.58 299.371L622.5 311L621.42 299.371L610.809 304.25L620.34 297.5L610.809 290.75L621.42 295.629L622.5 284Z"/>
</mask>
<path d="M622.5 284L673.281 279.284H571.719L622.5 284ZM623.58 295.629L572.799 300.345L579.458 372.051L644.887 341.965L623.58 295.629ZM634.191 290.75L663.666 332.37L612.885 244.414L634.191 290.75ZM624.66 297.5L595.185 255.88L536.415 297.5L595.185 339.12L624.66 297.5ZM634.191 304.25L612.885 350.586L663.666 262.63L634.191 304.25ZM623.58 299.371L644.887 253.035L579.458 222.949L572.799 294.655L623.58 299.371ZM622.5 311L571.719 315.716H673.281L622.5 311ZM621.42 299.371L672.201 294.655L665.542 222.949L600.113 253.035L621.42 299.371ZM610.809 304.25L581.334 262.63L632.115 350.586L610.809 304.25ZM620.34 297.5L649.815 339.12L708.585 297.5L649.815 255.88L620.34 297.5ZM610.809 290.75L632.115 244.414L581.334 332.37L610.809 290.75ZM621.42 295.629L600.113 341.965L665.542 372.051L672.201 300.345L621.42 295.629ZM571.719 288.716L572.799 300.345L674.361 290.913L673.281 279.284L571.719 288.716ZM644.887 341.965L655.498 337.086L612.885 244.414L602.273 249.293L644.887 341.965ZM604.716 249.13L595.185 255.88L654.135 339.12L663.666 332.37L604.716 249.13ZM595.185 339.12L604.716 345.87L663.666 262.63L654.135 255.88L595.185 339.12ZM655.498 257.914L644.887 253.035L602.273 345.707L612.885 350.586L655.498 257.914ZM572.799 294.655L571.719 306.284L673.281 315.716L674.361 304.087L572.799 294.655ZM673.281 306.284L672.201 294.655L570.639 304.087L571.719 315.716L673.281 306.284ZM600.113 253.035L589.502 257.914L632.115 350.586L642.727 345.707L600.113 253.035ZM640.284 345.87L649.815 339.12L590.865 255.88L581.334 262.63L640.284 345.87ZM649.815 255.88L640.284 249.13L581.334 332.37L590.865 339.12L649.815 255.88ZM589.502 337.086L600.113 341.965L642.727 249.293L632.115 244.414L589.502 337.086ZM672.201 300.345L673.281 288.716L571.719 279.284L570.639 290.913L672.201 300.345Z" fill="#FCFCFC" mask="url(#path-9-inside-5)"/>
<mask id="path-11-inside-6" fill="white">
<path d="M13.5 45L14.58 56.6294L25.1913 51.75L15.66 58.5L25.1913 65.25L14.58 60.3706L13.5 72L12.42 60.3706L1.80866 65.25L11.34 58.5L1.80866 51.75L12.42 56.6294L13.5 45Z"/>
</mask>
<path d="M13.5 45L64.2815 40.284H-37.2815L13.5 45ZM14.58 56.6294L-36.2015 61.3454L-29.5423 133.051L35.8866 102.965L14.58 56.6294ZM25.1913 51.75L54.6662 93.3701L3.88476 5.41395L25.1913 51.75ZM15.66 58.5L-13.8149 16.8799L-72.5846 58.5L-13.8149 100.12L15.66 58.5ZM25.1913 65.25L3.88476 111.586L54.6662 23.6299L25.1913 65.25ZM14.58 60.3706L35.8866 14.0346L-29.5423 -16.0514L-36.2015 55.6546L14.58 60.3706ZM13.5 72L-37.2815 76.716H64.2815L13.5 72ZM12.42 60.3706L63.2015 55.6546L56.5423 -16.0514L-8.88658 14.0346L12.42 60.3706ZM1.80866 65.25L-27.6662 23.6299L23.1152 111.586L1.80866 65.25ZM11.34 58.5L40.8149 100.12L99.5846 58.5L40.8149 16.8799L11.34 58.5ZM1.80866 51.75L23.1152 5.41395L-27.6662 93.3701L1.80866 51.75ZM12.42 56.6294L-8.88658 102.965L56.5423 133.051L63.2015 61.3454L12.42 56.6294ZM-37.2815 49.716L-36.2015 61.3454L65.3615 51.9134L64.2815 40.284L-37.2815 49.716ZM35.8866 102.965L46.4979 98.0861L3.88476 5.41395L-6.72658 10.2933L35.8866 102.965ZM-4.28356 10.1299L-13.8149 16.8799L45.1349 100.12L54.6662 93.3701L-4.28356 10.1299ZM-13.8149 100.12L-4.28356 106.87L54.6662 23.6299L45.1349 16.8799L-13.8149 100.12ZM46.4979 18.9139L35.8866 14.0346L-6.72658 106.707L3.88476 111.586L46.4979 18.9139ZM-36.2015 55.6546L-37.2815 67.284L64.2815 76.716L65.3615 65.0866L-36.2015 55.6546ZM64.2815 67.284L63.2015 55.6546L-38.3615 65.0866L-37.2815 76.716L64.2815 67.284ZM-8.88658 14.0346L-19.4979 18.9139L23.1152 111.586L33.7266 106.707L-8.88658 14.0346ZM31.2836 106.87L40.8149 100.12L-18.1349 16.8799L-27.6662 23.6299L31.2836 106.87ZM40.8149 16.8799L31.2836 10.1299L-27.6662 93.3701L-18.1349 100.12L40.8149 16.8799ZM-19.4979 98.0861L-8.88658 102.965L33.7266 10.2933L23.1152 5.41395L-19.4979 98.0861ZM63.2015 61.3454L64.2815 49.716L-37.2815 40.284L-38.3615 51.9134L63.2015 61.3454Z" fill="#FCFCFC" mask="url(#path-11-inside-6)"/>
<mask id="path-13-inside-7" fill="white">
<path d="M1465.5 310L1466.58 321.629L1477.19 316.75L1467.66 323.5L1477.19 330.25L1466.58 325.371L1465.5 337L1464.42 325.371L1453.81 330.25L1463.34 323.5L1453.81 316.75L1464.42 321.629L1465.5 310Z"/>
</mask>
<path d="M1465.5 310L1516.28 305.284H1414.72L1465.5 310ZM1466.58 321.629L1415.8 326.345L1422.46 398.051L1487.89 367.965L1466.58 321.629ZM1477.19 316.75L1506.67 358.37L1455.88 270.414L1477.19 316.75ZM1467.66 323.5L1438.19 281.88L1379.42 323.5L1438.19 365.12L1467.66 323.5ZM1477.19 330.25L1455.88 376.586L1506.67 288.63L1477.19 330.25ZM1466.58 325.371L1487.89 279.035L1422.46 248.949L1415.8 320.655L1466.58 325.371ZM1465.5 337L1414.72 341.716H1516.28L1465.5 337ZM1464.42 325.371L1515.2 320.655L1508.54 248.949L1443.11 279.035L1464.42 325.371ZM1453.81 330.25L1424.33 288.63L1475.12 376.586L1453.81 330.25ZM1463.34 323.5L1492.81 365.12L1551.58 323.5L1492.81 281.88L1463.34 323.5ZM1453.81 316.75L1475.12 270.414L1424.33 358.37L1453.81 316.75ZM1464.42 321.629L1443.11 367.965L1508.54 398.051L1515.2 326.345L1464.42 321.629ZM1414.72 314.716L1415.8 326.345L1517.36 316.913L1516.28 305.284L1414.72 314.716ZM1487.89 367.965L1498.5 363.086L1455.88 270.414L1445.27 275.293L1487.89 367.965ZM1447.72 275.13L1438.19 281.88L1497.13 365.12L1506.67 358.37L1447.72 275.13ZM1438.19 365.12L1447.72 371.87L1506.67 288.63L1497.13 281.88L1438.19 365.12ZM1498.5 283.914L1487.89 279.035L1445.27 371.707L1455.88 376.586L1498.5 283.914ZM1415.8 320.655L1414.72 332.284L1516.28 341.716L1517.36 330.087L1415.8 320.655ZM1516.28 332.284L1515.2 320.655L1413.64 330.087L1414.72 341.716L1516.28 332.284ZM1443.11 279.035L1432.5 283.914L1475.12 376.586L1485.73 371.707L1443.11 279.035ZM1483.28 371.87L1492.81 365.12L1433.87 281.88L1424.33 288.63L1483.28 371.87ZM1492.81 281.88L1483.28 275.13L1424.33 358.37L1433.87 365.12L1492.81 281.88ZM1432.5 363.086L1443.11 367.965L1485.73 275.293L1475.12 270.414L1432.5 363.086ZM1515.2 326.345L1516.28 314.716L1414.72 305.284L1413.64 316.913L1515.2 326.345Z" fill="#FCFCFC" mask="url(#path-13-inside-7)"/>
<mask id="path-15-inside-8" fill="white">
<path d="M1393.5 0L1394.58 11.6294L1405.19 6.75L1395.66 13.5L1405.19 20.25L1394.58 15.3706L1393.5 27L1392.42 15.3706L1381.81 20.25L1391.34 13.5L1381.81 6.75L1392.42 11.6294L1393.5 0Z"/>
</mask>
<path d="M1393.5 0L1444.28 -4.71598H1342.72L1393.5 0ZM1394.58 11.6294L1343.8 16.3454L1350.46 88.0514L1415.89 57.9654L1394.58 11.6294ZM1405.19 6.75L1434.67 48.3701L1383.88 -39.5861L1405.19 6.75ZM1395.66 13.5L1366.19 -28.1201L1307.42 13.5L1366.19 55.1201L1395.66 13.5ZM1405.19 20.25L1383.88 66.5861L1434.67 -21.3701L1405.19 20.25ZM1394.58 15.3706L1415.89 -30.9654L1350.46 -61.0514L1343.8 10.6546L1394.58 15.3706ZM1393.5 27L1342.72 31.716H1444.28L1393.5 27ZM1392.42 15.3706L1443.2 10.6546L1436.54 -61.0514L1371.11 -30.9654L1392.42 15.3706ZM1381.81 20.25L1352.33 -21.3701L1403.12 66.5861L1381.81 20.25ZM1391.34 13.5L1420.81 55.1201L1479.58 13.5L1420.81 -28.1201L1391.34 13.5ZM1381.81 6.75L1403.12 -39.5861L1352.33 48.3701L1381.81 6.75ZM1392.42 11.6294L1371.11 57.9654L1436.54 88.0514L1443.2 16.3454L1392.42 11.6294ZM1342.72 4.71598L1343.8 16.3454L1445.36 6.9134L1444.28 -4.71598L1342.72 4.71598ZM1415.89 57.9654L1426.5 53.0861L1383.88 -39.5861L1373.27 -34.7067L1415.89 57.9654ZM1375.72 -34.8701L1366.19 -28.1201L1425.13 55.1201L1434.67 48.3701L1375.72 -34.8701ZM1366.19 55.1201L1375.72 61.8701L1434.67 -21.3701L1425.13 -28.1201L1366.19 55.1201ZM1426.5 -26.0861L1415.89 -30.9654L1373.27 61.7067L1383.88 66.5861L1426.5 -26.0861ZM1343.8 10.6546L1342.72 22.284L1444.28 31.716L1445.36 20.0866L1343.8 10.6546ZM1444.28 22.284L1443.2 10.6546L1341.64 20.0866L1342.72 31.716L1444.28 22.284ZM1371.11 -30.9654L1360.5 -26.0861L1403.12 66.5861L1413.73 61.7067L1371.11 -30.9654ZM1411.28 61.8701L1420.81 55.1201L1361.87 -28.1201L1352.33 -21.3701L1411.28 61.8701ZM1420.81 -28.1201L1411.28 -34.8701L1352.33 48.3701L1361.87 55.1201L1420.81 -28.1201ZM1360.5 53.0861L1371.11 57.9654L1413.73 -34.7067L1403.12 -39.5861L1360.5 53.0861ZM1443.2 16.3454L1444.28 4.71598L1342.72 -4.71598L1341.64 6.9134L1443.2 16.3454Z" fill="#FCFCFC" mask="url(#path-15-inside-8)"/>
<mask id="path-17-inside-9" fill="white">
<path d="M1218.5 310L1219.58 321.629L1230.19 316.75L1220.66 323.5L1230.19 330.25L1219.58 325.371L1218.5 337L1217.42 325.371L1206.81 330.25L1216.34 323.5L1206.81 316.75L1217.42 321.629L1218.5 310Z"/>
</mask>
<path d="M1218.5 310L1269.28 305.284H1167.72L1218.5 310ZM1219.58 321.629L1168.8 326.345L1175.46 398.051L1240.89 367.965L1219.58 321.629ZM1230.19 316.75L1259.67 358.37L1208.88 270.414L1230.19 316.75ZM1220.66 323.5L1191.19 281.88L1132.42 323.5L1191.19 365.12L1220.66 323.5ZM1230.19 330.25L1208.88 376.586L1259.67 288.63L1230.19 330.25ZM1219.58 325.371L1240.89 279.035L1175.46 248.949L1168.8 320.655L1219.58 325.371ZM1218.5 337L1167.72 341.716H1269.28L1218.5 337ZM1217.42 325.371L1268.2 320.655L1261.54 248.949L1196.11 279.035L1217.42 325.371ZM1206.81 330.25L1177.33 288.63L1228.12 376.586L1206.81 330.25ZM1216.34 323.5L1245.81 365.12L1304.58 323.5L1245.81 281.88L1216.34 323.5ZM1206.81 316.75L1228.12 270.414L1177.33 358.37L1206.81 316.75ZM1217.42 321.629L1196.11 367.965L1261.54 398.051L1268.2 326.345L1217.42 321.629ZM1167.72 314.716L1168.8 326.345L1270.36 316.913L1269.28 305.284L1167.72 314.716ZM1240.89 367.965L1251.5 363.086L1208.88 270.414L1198.27 275.293L1240.89 367.965ZM1200.72 275.13L1191.19 281.88L1250.13 365.12L1259.67 358.37L1200.72 275.13ZM1191.19 365.12L1200.72 371.87L1259.67 288.63L1250.13 281.88L1191.19 365.12ZM1251.5 283.914L1240.89 279.035L1198.27 371.707L1208.88 376.586L1251.5 283.914ZM1168.8 320.655L1167.72 332.284L1269.28 341.716L1270.36 330.087L1168.8 320.655ZM1269.28 332.284L1268.2 320.655L1166.64 330.087L1167.72 341.716L1269.28 332.284ZM1196.11 279.035L1185.5 283.914L1228.12 376.586L1238.73 371.707L1196.11 279.035ZM1236.28 371.87L1245.81 365.12L1186.87 281.88L1177.33 288.63L1236.28 371.87ZM1245.81 281.88L1236.28 275.13L1177.33 358.37L1186.87 365.12L1245.81 281.88ZM1185.5 363.086L1196.11 367.965L1238.73 275.293L1228.12 270.414L1185.5 363.086ZM1268.2 326.345L1269.28 314.716L1167.72 305.284L1166.64 316.913L1268.2 326.345Z" fill="#FCFCFC" mask="url(#path-17-inside-9)"/>
<line x1="13.9537" y1="57.5022" x2="475.954" y2="14.5022" stroke="#F8F8F6"/>
<line x1="272.582" y1="323.725" x2="475.582" y2="14.7255" stroke="#F8F8F6"/>
<line x1="272.962" y1="323.501" x2="628.956" y2="296.426" stroke="#F8F8F6"/>
<line x1="998.91" y1="366.492" x2="622.91" y2="297.492" stroke="#F8F8F6"/>
<line x1="1035.5" y1="81.0627" x2="999.496" y2="366.063" stroke="#F8F8F6"/>
<line x1="1394.1" y1="13.4897" x2="1035.1" y2="87.4897" stroke="#F8F8F6"/>
<line x1="1223" y1="322.5" x2="1466" y2="323.5" stroke="#F8F8F6"/>
<line x1="1465.51" y1="324.113" x2="1393.51" y2="15.1135" stroke="#F8F8F6"/>
</svg>
